<svg width="15" height="15" viewBox="0 0 15 15" fill="none" xmlns="http://www.w3.org/2000/svg">
<path d="M2.2786 3.79976C3.18674 3.79976 3.92293 3.06357 3.92293 2.15544C3.92293 1.2473 3.18674 0.511108 2.2786 0.511108C1.37047 0.511108 0.634277 1.2473 0.634277 2.15544C0.634277 3.06357 1.37047 3.79976 2.2786 3.79976Z" fill="#1C1C1F"/>
<path d="M5.47558 5.04577V14.1685H8.30807V9.6571C8.30807 8.46669 8.53202 7.31386 10.008 7.31386C11.4637 7.31386 11.4817 8.67486 11.4817 9.73225V14.1692H14.3157V9.16636C14.3157 6.70888 13.7867 4.82031 10.9143 4.82031C9.5353 4.82031 8.61093 5.57709 8.23291 6.29329H8.19459V5.04577H5.47558ZM0.859741 5.04577H3.69673V14.1685H0.859741V5.04577Z" fill="#1C1C1F"/>
</svg>
