<svg width="15" height="14" viewBox="0 0 15 14" fill="none" xmlns="http://www.w3.org/2000/svg">
<path d="M7.32993 0.341553C5.47347 0.341553 5.24211 0.350517 4.51557 0.381252C3.78605 0.417109 3.29259 0.530229 2.85718 0.69927C2.40148 0.871308 1.98878 1.14066 1.64786 1.48855C1.29899 1.82868 1.02949 2.24161 0.858572 2.69788C0.689531 3.13329 0.576411 3.62675 0.540553 4.35627C0.507684 5.08323 0.500854 5.31417 0.500854 7.17063C0.500854 9.02709 0.509819 9.25845 0.540553 9.98498C0.576411 10.7124 0.689531 11.208 0.858572 11.6434C1.03061 12.0991 1.29996 12.5118 1.64786 12.8527C1.98798 13.2016 2.40091 13.4711 2.85718 13.642C3.29259 13.8089 3.78818 13.9241 4.51557 13.96C5.24253 13.9929 5.47347 13.9997 7.32993 13.9997C9.18639 13.9997 9.41775 13.9907 10.1443 13.96C10.8717 13.9241 11.3673 13.8085 11.8027 13.642C12.2584 13.4699 12.6711 13.2006 13.012 12.8527C13.3613 12.5129 13.6309 12.0999 13.8013 11.6434C13.9682 11.208 14.0834 10.7124 14.1193 9.98498C14.1522 9.25802 14.159 9.02709 14.159 7.17063C14.159 5.31417 14.15 5.0828 14.1193 4.35627C14.0834 3.62888 13.9678 3.13072 13.8013 2.69788C13.6292 2.24218 13.3599 1.82948 13.012 1.48855C12.6722 1.13924 12.2592 0.869668 11.8027 0.69927C11.3673 0.530229 10.8717 0.417109 10.1443 0.381252C9.41733 0.348383 9.18639 0.341553 7.32993 0.341553ZM7.32993 1.57094C9.15309 1.57094 9.3708 1.5799 10.0914 1.61064C10.756 1.6418 11.118 1.75279 11.3583 1.8467C11.6554 1.95637 11.9243 2.13093 12.1455 2.35766C12.3718 2.57785 12.5457 2.84615 12.6543 3.14268C12.7482 3.383 12.8592 3.74499 12.8903 4.40963C12.9211 5.13019 12.93 5.34832 12.93 7.17105C12.93 8.99379 12.9211 9.21192 12.8878 9.93248C12.8519 10.5971 12.7409 10.9591 12.6475 11.1994C12.5181 11.52 12.3738 11.7441 12.1356 11.9866C11.9138 12.2119 11.645 12.3856 11.3485 12.4954C11.1111 12.5893 10.744 12.7003 10.0768 12.7315C9.35244 12.7622 9.13901 12.7712 7.31115 12.7712C5.48329 12.7712 5.27028 12.7622 4.54503 12.7289C3.88039 12.6931 3.51371 12.5821 3.27338 12.4886C2.94896 12.3592 2.72656 12.215 2.48836 11.9768C2.24804 11.7364 2.09522 11.5076 1.9774 11.1896C1.88178 10.9523 1.7725 10.5852 1.73707 9.91797C1.71274 9.2021 1.70121 8.98013 1.70121 7.16081C1.70121 5.34234 1.71274 5.11994 1.73707 4.39511C1.7725 3.72792 1.88178 3.36166 1.9774 3.12347C2.09522 2.79862 2.24846 2.57665 2.48836 2.33632C2.72613 2.09855 2.94896 1.94488 3.27338 1.8245C3.51371 1.73102 3.87142 1.62003 4.53862 1.58673C5.26302 1.56069 5.47646 1.5513 7.30176 1.5513L7.32993 1.57094ZM7.32993 3.66559C6.86948 3.66543 6.41351 3.75599 5.98808 3.93212C5.56265 4.10825 5.1761 4.36648 4.85052 4.69207C4.52493 5.01765 4.2667 5.40421 4.09057 5.82964C3.91444 6.25507 3.82387 6.71103 3.82404 7.17148C3.82387 7.63193 3.91444 8.0879 4.09057 8.51332C4.2667 8.93876 4.52493 9.32531 4.85052 9.65089C5.1761 9.97648 5.56265 10.2347 5.98808 10.4108C6.41351 10.587 6.86948 10.6775 7.32993 10.6774C7.79038 10.6775 8.24634 10.587 8.67177 10.4108C9.0972 10.2347 9.48376 9.97648 9.80934 9.65089C10.1349 9.32531 10.3932 8.93876 10.5693 8.51332C10.7454 8.0879 10.836 7.63193 10.8358 7.17148C10.836 6.71103 10.7454 6.25507 10.5693 5.82964C10.3932 5.40421 10.1349 5.01765 9.80934 4.69207C9.48376 4.36648 9.0972 4.10825 8.67177 3.93212C8.24634 3.75599 7.79038 3.66543 7.32993 3.66559ZM7.32993 9.44798C6.07151 9.44798 5.05343 8.42989 5.05343 7.17148C5.05343 5.91307 6.07151 4.89498 7.32993 4.89498C8.58834 4.89498 9.60643 5.91307 9.60643 7.17148C9.60643 8.42989 8.58834 9.44798 7.32993 9.44798ZM11.7967 3.52558C11.7965 3.74314 11.7099 3.95171 11.556 4.10547C11.4021 4.25923 11.1934 4.3456 10.9758 4.3456C10.8683 4.3456 10.7617 4.32441 10.6623 4.28324C10.563 4.24208 10.4727 4.18174 10.3966 4.10567C10.3205 4.0296 10.2602 3.9393 10.219 3.83991C10.1779 3.74053 10.1567 3.63401 10.1567 3.52643C10.1567 3.41886 10.1779 3.31234 10.219 3.21295C10.2602 3.11357 10.3205 3.02326 10.3966 2.9472C10.4727 2.87113 10.563 2.81079 10.6623 2.76962C10.7617 2.72846 10.8683 2.70727 10.9758 2.70727C11.427 2.70727 11.7967 3.07438 11.7967 3.52558Z" fill="#1C1C1F"/>
</svg>
